ffmpeg started on 2025-05-05 at 19:31:39
Report written to "D:\Convert\FFMetrics\reports\ssim_report-6.txt"
Log level: 32
Command line:
ffmpeg -hide_banner -nostdin -i "G:\\\xc0\xed\xe8\xec\xe5\\\xce\xed\xe3\xee\xe8\xed\xe3\xe8\\!_35_\xcb\xe5\xf2\xee_2024\\JamClub\\\xdf \xef\xe0\xf0\xe8\xf0\xee\xe2\xe0\xeb \xe2\xf1\xb8 \xe2\xf0\xe5\xec\xff, \xf7\xf2\xee\xe1\xfb \xf1\xf2\xe0\xf2\xfc \xf1\xe8\xeb\xfc\xed\xe5\xe9\xf8\xe8\xec \xe0\xe2\xe0\xed\xf2\xfe\xf0\xe8\xf1\xf2\xee\xec\\JamClub_I_Parry_Everything_01_1080p_HEVC.mkv" -i "G:\\\xc0\xed\xe8\xec\xe5\\\xce\xed\xe3\xee\xe8\xed\xe3\xe8\\!_35_\xcb\xe5\xf2\xee_2024\\JamClub\\\xdf \xef\xe0\xf0\xe8\xf0\xee\xe2\xe0\xeb \xe2\xf1\xb8 \xe2\xf0\xe5\xec\xff, \xf7\xf2\xee\xe1\xfb \xf1\xf2\xe0\xf2\xfc \xf1\xe8\xeb\xfc\xed\xe5\xe9\xf8\xe8\xec \xe0\xe2\xe0\xed\xf2\xfe\xf0\xe8\xf1\xf2\xee\xec\\JamClub_I_Parry_Everything_01_1080p.mp4" -lavfi "[0:v]settb=AVTB,setpts=PTS-STARTPTS,format=pix_fmts=yuv420p10,fps=24000/1001,scale=1920:1080:flags=bicubic[main];[1:v]settb=AVTB,setpts=PTS-STARTPTS,format=pix_fmts=yuv420p,fps=24000/1001,scale=1920:1080:flags=bicubic[ref];[main][ref]ssim=eof_action=endall:stats_file='D\\:/Convert/FFMetrics/logs/ssim_logfile-6.txt'" -f null -
Input #0, matroska,webm, from 'G:\Аниме\Онгоинги\!_35_Лето_2024\JamClub\Я парировал всё время, чтобы стать сильнейшим авантюристом\JamClub_I_Parry_Everything_01_1080p_HEVC.mkv':
  Metadata:
    COMPATIBLE_BRANDS: isomiso2avc1mp41
    MAJOR_BRAND     : isom
    MINOR_VERSION   : 512
    ENCODER         : Lavf61.7.100
  Duration: 00:25:33.76, start: -0.021000, bitrate: 1248 kb/s
  Stream #0:0: Video: hevc (Main 10), yuv420p10le(tv, bt709, progressive), 1920x1080 [SAR 1:1 DAR 16:9], 23.98 fps, 23.98 tbr, 1k tbn (default)
      Metadata:
        HANDLER_NAME    : VideoHandler
        VENDOR_ID       : [0][0][0][0]
        ENCODER         : Lavc61.19.100 libx265
        BPS             : 1051030
        DURATION        : 00:25:33.656708333
        NUMBER_OF_FRAMES: 36771
        NUMBER_OF_BYTES : 201489873
        _STATISTICS_WRITING_APP: mkvpropedit v66.0.0 ('Josie') 64-bit
        _STATISTICS_WRITING_DATE_UTC: 2025-05-05 09:39:52
        _STATISTICS_TAGS: BPS DURATION NUMBER_OF_FRAMES NUMBER_OF_BYTES
  Stream #0:1(eng): Audio: aac (LC), 48000 Hz, stereo, fltp (default)
      Metadata:
        HANDLER_NAME    : SoundHandler
        VENDOR_ID       : [0][0][0][0]
        ENCODER         : Lavc61.19.100 aac
        BPS             : 193703
        DURATION        : 00:25:33.741000000
        NUMBER_OF_FRAMES: 71895
        NUMBER_OF_BYTES : 37136345
        _STATISTICS_WRITING_APP: mkvpropedit v66.0.0 ('Josie') 64-bit
        _STATISTICS_WRITING_DATE_UTC: 2025-05-05 09:39:52
        _STATISTICS_TAGS: BPS DURATION NUMBER_OF_FRAMES NUMBER_OF_BYTES
Input #1, mov,mp4,m4a,3gp,3g2,mj2, from 'G:\Аниме\Онгоинги\!_35_Лето_2024\JamClub\Я парировал всё время, чтобы стать сильнейшим авантюристом\JamClub_I_Parry_Everything_01_1080p.mp4':
  Metadata:
    major_brand     : isom
    minor_version   : 512
    compatible_brands: isomiso2avc1mp41
    encoder         : Lavf60.16.100
  Duration: 00:25:33.74, start: 0.000000, bitrate: 3881 kb/s
  Stream #1:0[0x1](und): Video: h264 (High) (avc1 / 0x31637661), yuv420p(tv, bt709, progressive), 1920x1080 [SAR 1:1 DAR 16:9], 3683 kb/s, 23.98 fps, 23.98 tbr, 90k tbn (default)
      Metadata:
        handler_name    : VideoHandler
        vendor_id       : [0][0][0][0]
  Stream #1:1[0x2](eng): Audio: aac (LC) (mp4a / 0x6134706D), 48000 Hz, stereo, fltp, 191 kb/s (default)
      Metadata:
        handler_name    : SoundHandler
        vendor_id       : [0][0][0][0]
Stream mapping:
  Stream #0:0 (hevc) -> settb:default
  Stream #1:0 (h264) -> settb:default
  ssim:default -> Stream #0:0 (wrapped_avframe)
  Stream #0:1 -> #0:1 (aac (native) -> pcm_s16le (native))
Output #0, null, to 'pipe:':
  Metadata:
    COMPATIBLE_BRANDS: isomiso2avc1mp41
    MAJOR_BRAND     : isom
    MINOR_VERSION   : 512
    encoder         : Lavf61.7.100
  Stream #0:0: Video: wrapped_avframe, yuv420p10le(tv, bt709, progressive), 1920x1080 [SAR 1:1 DAR 16:9], q=2-31, 200 kb/s, 23.98 fps, 23.98 tbn
      Metadata:
        encoder         : Lavc61.19.100 wrapped_avframe
  Stream #0:1(eng): Audio: pcm_s16le, 48000 Hz, stereo, s16, 1536 kb/s (default)
      Metadata:
        HANDLER_NAME    : SoundHandler
        VENDOR_ID       : [0][0][0][0]
        _STATISTICS_TAGS: BPS DURATION NUMBER_OF_FRAMES NUMBER_OF_BYTES
        BPS             : 193703
        DURATION        : 00:25:33.741000000
        NUMBER_OF_FRAMES: 71895
        NUMBER_OF_BYTES : 37136345
        _STATISTICS_WRITING_APP: mkvpropedit v66.0.0 ('Josie') 64-bit
        _STATISTICS_WRITING_DATE_UTC: 2025-05-05 09:39:52
        encoder         : Lavc61.19.100 pcm_s16le
frame=  116 fps=0.0 q=-0.0 size=N/A time=00:00:04.83 bitrate=N/A speed=9.27x    frame=  284 fps=273 q=-0.0 size=N/A time=00:00:11.84 bitrate=N/A speed=11.4x    frame=  483 fps=312 q=-0.0 size=N/A time=00:00:20.14 bitrate=N/A speed=  13x    frame=  752 fps=363 q=-0.0 size=N/A time=00:00:31.36 bitrate=N/A speed=15.1x    frame=  998 fps=387 q=-0.0 size=N/A time=00:00:41.62 bitrate=N/A speed=16.1x    frame= 1255 fps=405 q=-0.0 size=N/A time=00:00:52.34 bitrate=N/A speed=16.9x    frame= 1493 fps=414 q=-0.0 size=N/A time=00:01:02.27 bitrate=N/A speed=17.3x    frame= 1739 fps=421 q=-0.0 size=N/A time=00:01:12.53 bitrate=N/A speed=17.5x    frame= 2017 fps=434 q=-0.0 size=N/A time=00:01:24.16 bitrate=N/A speed=18.1x    frame= 2244 fps=435 q=-0.0 size=N/A time=00:01:33.59 bitrate=N/A speed=18.1x    frame= 2473 fps=436 q=-0.0 size=N/A time=00:01:43.14 bitrate=N/A speed=18.2x    frame= 2692 fps=435 q=-0.0 size=N/A time=00:01:52.27 bitrate=N/A speed=18.1x    frame= 2918 fps=435 q=-0.0 size=N/A time=00:02:01.70 bitrate=N/A speed=18.1x    frame= 3119 fps=432 q=-0.0 size=N/A time=00:02:10.08 bitrate=N/A speed=  18x    frame= 3295 fps=425 q=-0.0 size=N/A time=00:02:17.42 bitrate=N/A speed=17.7x    frame= 3469 fps=420 q=-0.0 size=N/A time=00:02:24.68 bitrate=N/A speed=17.5x    frame= 3693 fps=421 q=-0.0 size=N/A time=00:02:34.02 bitrate=N/A speed=17.6x    frame= 3892 fps=419 q=-0.0 size=N/A time=00:02:42.32 bitrate=N/A speed=17.5x    frame= 4034 fps=412 q=-0.0 size=N/A time=00:02:48.25 bitrate=N/A speed=17.2x    frame= 4208 fps=408 q=-0.0 size=N/A time=00:02:55.50 bitrate=N/A speed=  17x    frame= 4370 fps=403 q=-0.0 size=N/A time=00:03:02.26 bitrate=N/A speed=16.8x    frame= 4598 fps=405 q=-0.0 size=N/A time=00:03:11.77 bitrate=N/A speed=16.9x    frame= 4819 fps=406 q=-0.0 size=N/A time=00:03:20.99 bitrate=N/A speed=16.9x    frame= 5053 fps=408 q=-0.0 size=N/A time=00:03:30.75 bitrate=N/A speed=  17x    frame= 5312 fps=412 q=-0.0 size=N/A time=00:03:41.55 bitrate=N/A speed=17.2x    frame= 5577 fps=416 q=-0.0 size=N/A time=00:03:52.60 bitrate=N/A speed=17.3x    frame= 5858 fps=420 q=-0.0 size=N/A time=00:04:04.32 bitrate=N/A speed=17.5x    frame= 6111 fps=423 q=-0.0 size=N/A time=00:04:14.87 bitrate=N/A speed=17.7x    frame= 6368 fps=426 q=-0.0 size=N/A time=00:04:25.59 bitrate=N/A speed=17.8x    frame= 6644 fps=429 q=-0.0 size=N/A time=00:04:37.11 bitrate=N/A speed=17.9x    frame= 6892 fps=431 q=-0.0 size=N/A time=00:04:47.45 bitrate=N/A speed=  18x    frame= 7146 fps=433 q=-0.0 size=N/A time=00:04:58.04 bitrate=N/A speed=18.1x    frame= 7408 fps=435 q=-0.0 size=N/A time=00:05:08.97 bitrate=N/A speed=18.1x    frame= 7667 fps=437 q=-0.0 size=N/A time=00:05:19.77 bitrate=N/A speed=18.2x    frame= 7889 fps=437 q=-0.0 size=N/A time=00:05:29.03 bitrate=N/A speed=18.2x    frame= 8133 fps=438 q=-0.0 size=N/A time=00:05:39.21 bitrate=N/A speed=18.3x    frame= 8399 fps=440 q=-0.0 size=N/A time=00:05:50.30 bitrate=N/A speed=18.4x    frame= 8668 fps=442 q=-0.0 size=N/A time=00:06:01.52 bitrate=N/A speed=18.4x    frame= 8925 fps=444 q=-0.0 size=N/A time=00:06:12.24 bitrate=N/A speed=18.5x    frame= 9159 fps=444 q=-0.0 size=N/A time=00:06:22.00 bitrate=N/A speed=18.5x    frame= 9334 fps=441 q=-0.0 size=N/A time=00:06:29.30 bitrate=N/A speed=18.4x    frame= 9584 fps=442 q=-0.0 size=N/A time=00:06:39.73 bitrate=N/A speed=18.4x    frame= 9861 fps=444 q=-0.0 size=N/A time=00:06:51.28 bitrate=N/A speed=18.5x    frame=10125 fps=445 q=-0.0 size=N/A time=00:07:02.29 bitrate=N/A speed=18.6x    frame=10363 fps=446 q=-0.0 size=N/A time=00:07:12.22 bitrate=N/A speed=18.6x    frame=10629 fps=447 q=-0.0 size=N/A time=00:07:23.31 bitrate=N/A speed=18.6x    frame=10876 fps=448 q=-0.0 size=N/A time=00:07:33.61 bitrate=N/A speed=18.7x    frame=11132 fps=449 q=-0.0 size=N/A time=00:07:44.29 bitrate=N/A speed=18.7x    frame=11378 fps=449 q=-0.0 size=N/A time=00:07:54.55 bitrate=N/A speed=18.7x    frame=11575 fps=448 q=-0.0 size=N/A time=00:08:02.77 bitrate=N/A speed=18.7x    frame=11791 fps=448 q=-0.0 size=N/A time=00:08:11.78 bitrate=N/A speed=18.7x    frame=12015 fps=447 q=-0.0 size=N/A time=00:08:21.12 bitrate=N/A speed=18.7x    frame=12244 fps=447 q=-0.0 size=N/A time=00:08:30.67 bitrate=N/A speed=18.7x    frame=12485 fps=448 q=-0.0 size=N/A time=00:08:40.72 bitrate=N/A speed=18.7x    frame=12724 fps=448 q=-0.0 size=N/A time=00:08:50.69 bitrate=N/A speed=18.7x    frame=13005 fps=450 q=-0.0 size=N/A time=00:09:02.41 bitrate=N/A speed=18.8x    frame=13279 fps=451 q=-0.0 size=N/A time=00:09:13.84 bitrate=N/A speed=18.8x    frame=13565 fps=453 q=-0.0 size=N/A time=00:09:25.77 bitrate=N/A speed=18.9x    frame=13813 fps=453 q=-0.0 size=N/A time=00:09:36.11 bitrate=N/A speed=18.9x    frame=14103 fps=455 q=-0.0 size=N/A time=00:09:48.21 bitrate=N/A speed=  19x    frame=14355 fps=455 q=-0.0 size=N/A time=00:09:58.72 bitrate=N/A speed=  19x    frame=14551 fps=454 q=-0.0 size=N/A time=00:10:06.89 bitrate=N/A speed=18.9x    frame=14782 fps=454 q=-0.0 size=N/A time=00:10:16.53 bitrate=N/A speed=18.9x    frame=15010 fps=454 q=-0.0 size=N/A time=00:10:26.04 bitrate=N/A speed=18.9x    frame=15272 fps=455 q=-0.0 size=N/A time=00:10:36.96 bitrate=N/A speed=  19x    frame=15543 fps=456 q=-0.0 size=N/A time=00:10:48.27 bitrate=N/A speed=  19x    frame=15787 fps=456 q=-0.0 size=N/A time=00:10:58.44 bitrate=N/A speed=  19x    frame=16008 fps=456 q=-0.0 size=N/A time=00:11:07.66 bitrate=N/A speed=  19x    frame=16287 fps=457 q=-0.0 size=N/A time=00:11:19.30 bitrate=N/A speed=19.1x    frame=16511 fps=457 q=-0.0 size=N/A time=00:11:28.64 bitrate=N/A speed=  19x    frame=16778 fps=457 q=-0.0 size=N/A time=00:11:39.78 bitrate=N/A speed=19.1x    frame=17036 fps=458 q=-0.0 size=N/A time=00:11:50.54 bitrate=N/A speed=19.1x    frame=17307 fps=459 q=-0.0 size=N/A time=00:12:01.84 bitrate=N/A speed=19.1x    frame=17567 fps=460 q=-0.0 size=N/A time=00:12:12.69 bitrate=N/A speed=19.2x    frame=17831 fps=460 q=-0.0 size=N/A time=00:12:23.70 bitrate=N/A speed=19.2x    frame=18100 fps=461 q=-0.0 size=N/A time=00:12:34.92 bitrate=N/A speed=19.2x    frame=18342 fps=461 q=-0.0 size=N/A time=00:12:45.01 bitrate=N/A speed=19.2x    frame=18603 fps=462 q=-0.0 size=N/A time=00:12:55.90 bitrate=N/A speed=19.3x    frame=18850 fps=462 q=-0.0 size=N/A time=00:13:06.20 bitrate=N/A speed=19.3x    frame=19112 fps=463 q=-0.0 size=N/A time=00:13:17.12 bitrate=N/A speed=19.3x    frame=19341 fps=462 q=-0.0 size=N/A time=00:13:26.68 bitrate=N/A speed=19.3x    frame=19567 fps=462 q=-0.0 size=N/A time=00:13:36.10 bitrate=N/A speed=19.3x    frame=19772 fps=461 q=-0.0 size=N/A time=00:13:44.65 bitrate=N/A speed=19.2x    frame=19967 fps=460 q=-0.0 size=N/A time=00:13:52.79 bitrate=N/A speed=19.2x    frame=20197 fps=460 q=-0.0 size=N/A time=00:14:02.38 bitrate=N/A speed=19.2x    frame=20433 fps=460 q=-0.0 size=N/A time=00:14:12.22 bitrate=N/A speed=19.2x    frame=20689 fps=460 q=-0.0 size=N/A time=00:14:22.90 bitrate=N/A speed=19.2x    frame=20950 fps=461 q=-0.0 size=N/A time=00:14:33.78 bitrate=N/A speed=19.2x    frame=21162 fps=460 q=-0.0 size=N/A time=00:14:42.63 bitrate=N/A speed=19.2x    frame=21408 fps=461 q=-0.0 size=N/A time=00:14:52.89 bitrate=N/A speed=19.2x    frame=21659 fps=461 q=-0.0 size=N/A time=00:15:03.36 bitrate=N/A speed=19.2x    frame=21912 fps=461 q=-0.0 size=N/A time=00:15:13.91 bitrate=N/A speed=19.2x    frame=22207 fps=462 q=-0.0 size=N/A time=00:15:26.21 bitrate=N/A speed=19.3x    frame=22487 fps=463 q=-0.0 size=N/A time=00:15:37.89 bitrate=N/A speed=19.3x    frame=22764 fps=464 q=-0.0 size=N/A time=00:15:49.44 bitrate=N/A speed=19.3x    frame=23022 fps=464 q=-0.0 size=N/A time=00:16:00.20 bitrate=N/A speed=19.4x    frame=23285 fps=465 q=-0.0 size=N/A time=00:16:11.17 bitrate=N/A speed=19.4x    frame=23575 fps=466 q=-0.0 size=N/A time=00:16:23.27 bitrate=N/A speed=19.4x    frame=23811 fps=466 q=-0.0 size=N/A time=00:16:33.11 bitrate=N/A speed=19.4x    frame=24085 fps=466 q=-0.0 size=N/A time=00:16:44.54 bitrate=N/A speed=19.4x    frame=24333 fps=467 q=-0.0 size=N/A time=00:16:54.88 bitrate=N/A speed=19.5x    frame=24571 fps=466 q=-0.0 size=N/A time=00:17:04.81 bitrate=N/A speed=19.5x    frame=24828 fps=467 q=-0.0 size=N/A time=00:17:15.53 bitrate=N/A speed=19.5x    frame=25107 fps=468 q=-0.0 size=N/A time=00:17:27.17 bitrate=N/A speed=19.5x    frame=25369 fps=468 q=-0.0 size=N/A time=00:17:38.09 bitrate=N/A speed=19.5x    frame=25626 fps=468 q=-0.0 size=N/A time=00:17:48.81 bitrate=N/A speed=19.5x    frame=25882 fps=468 q=-0.0 size=N/A time=00:17:59.49 bitrate=N/A speed=19.5x    frame=26136 fps=469 q=-0.0 size=N/A time=00:18:10.08 bitrate=N/A speed=19.5x    frame=26360 fps=468 q=-0.0 size=N/A time=00:18:19.43 bitrate=N/A speed=19.5x    frame=26581 fps=468 q=-0.0 size=N/A time=00:18:28.64 bitrate=N/A speed=19.5x    frame=26854 fps=468 q=-0.0 size=N/A time=00:18:40.03 bitrate=N/A speed=19.5x    frame=27126 fps=469 q=-0.0 size=N/A time=00:18:51.38 bitrate=N/A speed=19.6x    frame=27376 fps=469 q=-0.0 size=N/A time=00:19:01.80 bitrate=N/A speed=19.6x    frame=27625 fps=469 q=-0.0 size=N/A time=00:19:12.19 bitrate=N/A speed=19.6x    frame=27884 fps=470 q=-0.0 size=N/A time=00:19:22.99 bitrate=N/A speed=19.6x    frame=28133 fps=470 q=-0.0 size=N/A time=00:19:33.38 bitrate=N/A speed=19.6x    frame=28351 fps=469 q=-0.0 size=N/A time=00:19:42.47 bitrate=N/A speed=19.6x    frame=28545 fps=468 q=-0.0 size=N/A time=00:19:50.56 bitrate=N/A speed=19.5x    frame=28777 fps=468 q=-0.0 size=N/A time=00:20:00.24 bitrate=N/A speed=19.5x    frame=29024 fps=468 q=-0.0 size=N/A time=00:20:10.54 bitrate=N/A speed=19.5x    frame=29281 fps=469 q=-0.0 size=N/A time=00:20:21.26 bitrate=N/A speed=19.5x    frame=29496 fps=468 q=-0.0 size=N/A time=00:20:30.22 bitrate=N/A speed=19.5x    frame=29745 fps=468 q=-0.0 size=N/A time=00:20:40.61 bitrate=N/A speed=19.5x    frame=29980 fps=468 q=-0.0 size=N/A time=00:20:50.41 bitrate=N/A speed=19.5x    frame=30206 fps=468 q=-0.0 size=N/A time=00:20:59.84 bitrate=N/A speed=19.5x    frame=30438 fps=468 q=-0.0 size=N/A time=00:21:09.51 bitrate=N/A speed=19.5x    frame=30663 fps=468 q=-0.0 size=N/A time=00:21:18.90 bitrate=N/A speed=19.5x    frame=30899 fps=468 q=-0.0 size=N/A time=00:21:28.74 bitrate=N/A speed=19.5x    frame=31141 fps=467 q=-0.0 size=N/A time=00:21:38.83 bitrate=N/A speed=19.5x    frame=31387 fps=468 q=-0.0 size=N/A time=00:21:49.09 bitrate=N/A speed=19.5x    frame=31619 fps=467 q=-0.0 size=N/A time=00:21:58.77 bitrate=N/A speed=19.5x    frame=31858 fps=467 q=-0.0 size=N/A time=00:22:08.74 bitrate=N/A speed=19.5x    frame=32108 fps=468 q=-0.0 size=N/A time=00:22:19.17 bitrate=N/A speed=19.5x    frame=32316 fps=467 q=-0.0 size=N/A time=00:22:27.84 bitrate=N/A speed=19.5x    frame=32551 fps=467 q=-0.0 size=N/A time=00:22:37.64 bitrate=N/A speed=19.5x    frame=32817 fps=467 q=-0.0 size=N/A time=00:22:48.74 bitrate=N/A speed=19.5x    frame=33082 fps=468 q=-0.0 size=N/A time=00:22:59.79 bitrate=N/A speed=19.5x    frame=33343 fps=468 q=-0.0 size=N/A time=00:23:10.68 bitrate=N/A speed=19.5x    frame=33616 fps=468 q=-0.0 size=N/A time=00:23:22.06 bitrate=N/A speed=19.5x    frame=33866 fps=469 q=-0.0 size=N/A time=00:23:32.49 bitrate=N/A speed=19.5x    frame=34144 fps=469 q=-0.0 size=N/A time=00:23:44.08 bitrate=N/A speed=19.6x    frame=34418 fps=469 q=-0.0 size=N/A time=00:23:55.51 bitrate=N/A speed=19.6x    frame=34674 fps=470 q=-0.0 size=N/A time=00:24:06.19 bitrate=N/A speed=19.6x    frame=34906 fps=470 q=-0.0 size=N/A time=00:24:15.87 bitrate=N/A speed=19.6x    frame=35078 fps=469 q=-0.0 size=N/A time=00:24:23.04 bitrate=N/A speed=19.5x    frame=35266 fps=468 q=-0.0 size=N/A time=00:24:30.88 bitrate=N/A speed=19.5x    frame=35495 fps=468 q=-0.0 size=N/A time=00:24:40.43 bitrate=N/A speed=19.5x    frame=35697 fps=467 q=-0.0 size=N/A time=00:24:48.86 bitrate=N/A speed=19.5x    frame=35890 fps=467 q=-0.0 size=N/A time=00:24:56.91 bitrate=N/A speed=19.5x    frame=36038 fps=465 q=-0.0 size=N/A time=00:25:03.08 bitrate=N/A speed=19.4x    frame=36244 fps=465 q=-0.0 size=N/A time=00:25:11.67 bitrate=N/A speed=19.4x    frame=36440 fps=464 q=-0.0 size=N/A time=00:25:19.85 bitrate=N/A speed=19.4x    frame=36642 fps=464 q=-0.0 size=N/A time=00:25:28.27 bitrate=N/A speed=19.3x    [Parsed_ssim_10 @ 0000016a6a1b4c40] SSIM Y:0.994157 (22.333954) U:0.993753 (22.043502) V:0.994515 (22.608383) All:0.994150 (22.328217)
[out#0/null @ 0000016a6a0312c0] video:15800KiB audio:287580KiB subtitle:0KiB other streams:0KiB global headers:0KiB muxing overhead: unknown
frame=36771 fps=464 q=-0.0 Lsize=N/A time=00:25:33.65 bitrate=N/A speed=19.3x    
